<svg width="226" height="210" viewBox="0 0 226 210" fill="none" xmlns="http://www.w3.org/2000/svg">
<g filter="url(#filter0_d_1_11)">
<path d="M213.497 59.69V96.5982L198.3 108.9L218.322 125.304V166.794L187.443 197.671H113.246C115.418 195.663 117.39 193.479 119.161 191.263C122.971 186.496 126.438 180.853 129.488 174.674L130.774 171.988L130.816 171.898C132.355 168.517 133.717 164.842 134.882 161.005H169.592V126.993H139.388C139.165 122.428 138.52 119.527 136.767 112.304C135.785 108.255 135.046 105.198 134.195 102.658C133.316 100.036 132.348 98.0493 131.357 96.1158H165.732V65.479H123.273V83.2193C122.902 82.7337 122.301 81.9721 121.588 81.2134C121.275 80.8806 120.482 80.05 119.36 79.2046C118.82 78.7976 117.677 77.9793 116.065 77.2798C114.769 76.7174 110.906 75.2207 105.99 76.4126C105.63 76.4999 105.287 76.63 104.948 76.7368C100.96 62.2883 94.4077 50.0794 84.448 38.3199L84.3591 38.2144C82.3477 35.8823 79.9361 33.3349 77.9656 31.3785C77.4851 30.9014 76.9794 30.4072 76.4724 29.9283V28.813H182.619L213.497 59.69ZM76.4724 53.6958C82.7812 62.2298 87.0473 71.0752 89.8357 81.3658L90.4753 83.8706C93.6895 97.1141 93.8013 109.271 90.8865 120.65C88.9276 128.052 88.5163 133.236 89.4597 137.811C90.1084 141.171 90.378 141.778 91.3171 142.555C93.876 144.672 97.9756 141.946 102.991 134.751L104.602 132.326C112.307 120.155 114.407 107.546 110.689 95.6138L110.444 94.7681C110.092 93.5695 109.82 92.5741 109.731 92.0894L109.718 91.7749C110.207 91.6903 114.739 98.5505 116.863 102.496C119.146 106.914 119.304 107.381 121.404 116.033C122.894 122.172 123.378 124.36 123.56 126.993H123.273V138.747C122.351 148.022 119.889 157.748 116.43 165.349C110.543 178.063 103.306 187.138 96.5046 190.241L94.6277 191.085L96.0652 187.384C96.825 185.356 97.5978 182.54 97.7507 181.106C98.0687 178.292 97.5331 173.846 96.6404 171.883L96.1003 170.672L93.9949 173.026C92.8073 174.318 90.9382 175.886 89.8064 176.552C87.9376 177.62 87.6609 177.688 86.4333 176.925C85.205 176.162 85.0353 175.811 84.2927 172.751C83.6027 169.736 83.5771 168.622 84.281 162.753C85.1961 154.487 84.9963 149.005 83.4412 141.393C82.2179 135.321 80.7765 131.088 78.3787 126.195L76.9997 123.457L77.5759 128.908C78.2578 135.5 78.1831 138.646 77.2097 141.34C77.0134 141.88 76.7634 142.367 76.4724 142.801V53.6958Z" fill="white"/>
<path d="M19.2896 3.90967C19.3536 4.17348 20.263 5.68479 21.3557 7.26336C30.7592 21.0721 35.0352 38.8628 32.8127 55.1576C32.0307 60.8786 29.6078 68.9532 27.4701 73.2153C23.4351 81.0107 20.769 88.0828 19.8994 93.0987C17.4297 106.828 17.8337 118.295 21.1887 132.119C24.6334 146.312 30.7311 157.85 40.0137 167.721L43.8466 171.819L40.7358 169.837C39.0105 168.747 35.2356 165.92 32.3634 163.544C26.3183 158.586 23.6502 154.987 20.2187 147.383C16.4896 139.07 13.2895 123.476 12.8875 111.673C12.8079 109.625 12.6868 107.923 12.6218 107.827C12.3213 107.62 10.2167 115.115 9.36595 119.176C8.92036 121.296 8.30508 125.468 8.02496 128.441C5.39158 154.222 12.277 172.273 29.9195 186.15C37.4416 192.035 49.4138 197.51 55.5253 197.926C60.5617 198.213 64.7863 196.014 65.6203 192.571C65.9288 191.435 65.7731 191.137 63.2961 188.498C59.411 184.357 57.0689 181.07 54.2925 175.821C51.9181 171.369 51.6856 170.755 49.9825 163.738C48.4468 157.238 48.2065 155.732 48.1271 151.449C48.1037 148.773 48.2577 144.937 48.5319 142.971L48.9598 139.403L50.4081 142.962C52.141 147.179 54.8564 151.66 56.5019 152.937L57.638 153.835L55.9153 145.704C52.6855 130.677 52.2767 117.814 54.6624 107.178C55.0793 105.457 55.4421 104.028 55.4815 104.019C55.5209 104.009 55.708 105.64 55.8271 107.678C56.0081 110.316 56.7715 114.321 58.4362 121.18C61.6366 134.539 63.9892 140.449 67.2132 143.242C71.2334 146.736 76.395 145.819 78.0223 141.345C78.9962 138.651 79.0674 135.505 78.3851 128.91L77.8141 123.461L79.1885 126.201C81.5865 131.094 83.0307 135.325 84.2541 141.397C85.8093 149.009 86.0128 154.491 85.0976 162.759C84.3935 168.628 84.4131 169.741 85.1036 172.758C85.8463 175.818 86.0148 176.169 87.2435 176.932C88.4723 177.695 88.7482 177.628 90.6176 176.56C91.7499 175.894 93.6223 174.322 94.8108 173.028L96.911 170.675L97.4548 171.884C98.3484 173.846 98.886 178.297 98.5675 181.112C98.4146 182.546 97.6369 185.36 96.8769 187.389L95.4379 191.09L97.3191 190.242C104.121 187.139 111.351 178.065 117.239 165.351C121.813 155.302 124.65 141.539 124.482 130.015C124.405 125.396 124.215 124.269 122.217 116.038C120.117 107.385 119.962 106.92 117.68 102.501C115.552 98.5481 111.001 91.663 110.528 91.7778C110.409 91.8065 110.871 93.5381 111.502 95.6199C115.467 108.346 112.815 121.84 103.803 134.754C98.7878 141.949 94.6912 144.675 92.1323 142.558C91.1923 141.781 90.9204 141.176 90.2713 137.814C89.3277 133.238 89.7391 128.054 91.6987 120.651C94.6136 109.272 94.5024 97.1193 91.2882 83.8758C88.01 70.3684 82.3813 59.387 73.1963 48.5422C69.7694 44.569 64.7088 39.5396 64.5097 39.9231C64.4565 40.0477 65.22 41.8179 66.1787 43.876C68.7442 49.2874 71.8885 61.0394 72.1088 65.9025C72.3901 71.533 71.4535 76.7887 69.4468 81.0748C67.8255 84.5412 64.6906 88.8218 64.1161 88.3466C63.9989 88.2075 63.6295 86.3416 63.341 84.1209C62.0844 74.8161 59.1107 60.8438 56.6283 52.507C53.3863 41.7285 51.345 36.4134 47.4543 28.8093C42.4739 19.1232 36.9001 12.1511 30.7062 7.95538C26.551 5.10867 18.931 2.43231 19.2896 3.90967Z" fill="white"/>
<path d="M49.9942 163.739C51.6967 170.754 51.9272 171.372 54.3013 175.824C57.0772 181.071 59.4115 184.357 63.2961 188.498C65.7689 191.133 65.9394 191.434 65.6327 192.566C64.7987 196.009 60.5707 198.21 55.5343 197.924C49.4227 197.507 37.4413 192.034 29.9195 186.15L28.3049 184.833C11.8658 171.134 5.48292 153.415 8.03361 128.441C8.31374 125.468 8.9288 121.292 9.3744 119.172C10.173 115.361 12.0783 108.534 12.5583 107.875L12.6336 107.825C12.6661 107.875 12.7082 108.326 12.7564 109.018L12.8991 111.669C13.3011 123.47 16.4901 139.069 20.2187 147.383C23.2211 154.036 25.647 157.624 30.254 161.739L32.3759 163.543C35.2471 165.918 39.0101 168.746 40.7358 169.837L43.8466 171.819L40.0233 167.724C30.7406 157.853 24.6429 146.31 21.1982 132.117L20.0762 127.036C17.785 115.392 17.7486 105.109 19.9096 93.0966C20.7793 88.0811 23.4359 81.0094 27.4701 73.2153C29.6078 68.9532 32.0418 60.8779 32.8238 55.157C35.0463 38.8621 30.7699 21.0704 21.3664 7.26173L19.951 5.09527C19.5796 4.4883 19.3323 4.04603 19.2983 3.91132C18.9845 2.61852 24.7796 4.50692 29.017 6.90635L30.7172 7.95524C36.1368 11.6268 41.0839 17.4228 45.5718 25.3038L47.4629 28.8084C50.381 34.5115 52.2625 38.9265 54.3868 45.3253L56.6382 52.5073C58.8103 59.802 61.3589 71.4103 62.8038 80.4316L63.3494 84.1197C63.6379 86.3404 64.0118 88.2076 64.129 88.3467C64.7099 88.8078 67.838 84.5342 69.457 81.0728C71.4633 76.7869 72.4023 71.5287 72.121 65.8988C71.8996 61.0339 68.7531 49.2856 66.1881 43.8752C65.4679 42.3291 64.8577 40.9454 64.6214 40.2999L64.521 39.9192C64.69 39.655 67.5662 42.4035 70.4346 45.4659L73.2068 48.5422C81.8169 58.7084 87.305 68.994 90.6581 81.3687L91.298 83.8743C94.5122 97.1178 94.6239 109.275 91.709 120.653C89.9949 127.13 89.466 131.908 89.9926 136.066L90.282 137.815C90.9307 141.175 91.2008 141.781 92.1402 142.559C94.6991 144.675 98.7978 141.949 103.813 134.754C112.825 121.839 115.477 108.343 111.512 95.6172L110.741 92.9291C110.65 92.5788 110.59 92.2919 110.553 92.0928L110.541 91.7782C110.907 91.7148 113.55 95.5526 115.743 99.1417L117.68 102.501C119.392 105.816 119.918 106.905 120.955 110.895L122.227 116.036C124.224 124.266 124.414 125.396 124.491 130.014C124.648 140.818 122.168 153.592 118.088 163.426L117.253 165.353C111.365 178.067 104.128 187.141 97.327 190.244L95.4508 191.088L96.888 187.388C97.6479 185.36 98.4146 182.546 98.5675 181.112C98.8855 178.298 98.3557 173.85 97.463 171.887L96.9227 170.675L94.8108 173.028C93.6232 174.321 91.7608 175.889 90.6289 176.555C88.7602 177.623 88.4839 177.692 87.2563 176.929L86.5055 176.388C85.9043 175.824 85.6725 175.051 85.1152 172.754C84.4252 169.739 84.3937 168.627 85.0976 162.759C86.0128 154.492 85.8195 149.008 84.2642 141.396C83.041 135.324 81.5995 131.092 79.2016 126.199L77.822 123.459L78.3985 128.911C79.0804 135.504 79.0053 138.649 78.0319 141.344C76.4047 145.817 71.2417 146.737 67.2216 143.244C63.9976 140.451 61.6365 134.538 58.4362 121.18C56.7715 114.321 56.0081 110.316 55.8271 107.678L55.6316 105.079C55.5664 104.431 55.5137 104.028 55.4929 104.017C55.4535 104.026 55.0887 105.457 54.6717 107.179C52.5844 116.485 52.6373 127.496 54.8467 140.171L55.9281 145.707L57.6469 153.836L56.5148 152.935L55.847 152.311C54.2014 150.539 51.9322 146.65 50.4165 142.962L48.9732 139.404L48.5442 142.971C48.4072 143.954 48.2983 145.402 48.2285 146.94L48.1393 151.449C48.1989 154.66 48.3448 156.311 49.0637 159.676L49.9942 163.739ZM49.8436 159.519C49.1311 156.185 48.988 154.584 48.9295 151.432C48.9124 149.438 48.9893 146.813 49.1436 144.819L49.3242 143.076L49.3298 143.066L49.3934 142.543L49.6879 143.266C50.5702 145.412 51.6989 147.623 52.8205 149.463C53.923 151.272 55.0761 152.827 56.0237 153.563L57.1615 154.454L58.8728 155.81L58.4251 153.671L56.6987 145.544C53.6253 131.243 53.1362 118.962 55.1551 108.745C55.4461 111.438 56.2097 115.316 57.678 121.366C59.28 128.053 60.677 132.917 62.0897 136.467C63.5014 140.015 64.9571 142.322 66.7064 143.838L67.5313 144.487C69.4942 145.882 71.6798 146.407 73.6633 146.057C75.9452 145.655 77.8661 144.108 78.7733 141.616C79.815 138.734 79.8618 135.416 79.1798 128.825L79.0761 127.841C81.0824 132.148 82.3894 136.079 83.4918 141.552C85.0291 149.076 85.2265 154.477 84.3197 162.669C83.9695 165.59 83.7946 167.39 83.7979 168.833C83.8016 170.304 83.9898 171.401 84.3407 172.934C84.7038 174.43 84.9586 175.395 85.2983 176.062C85.684 176.818 86.1803 177.192 86.8398 177.602C87.451 177.982 88.0379 178.306 88.792 178.216C89.1403 178.175 89.4764 178.048 89.8165 177.888C90.157 177.729 90.5547 177.512 91.0192 177.247L91.0249 177.238C91.9373 176.701 93.2542 175.653 94.3719 174.599L95.3994 173.563L95.4126 173.552L96.6994 172.112L96.7474 172.211C97.1431 173.081 97.4898 174.587 97.693 176.271C97.8945 177.942 97.9395 179.694 97.7894 181.021C97.6465 182.359 96.8946 185.106 96.1448 187.107L94.0081 192.606L95.7697 191.813L97.6516 190.959C101.207 189.336 104.813 186.187 108.247 181.891C111.689 177.585 115.003 172.08 117.967 165.68L118.812 163.727C122.659 154.453 125.1 142.619 125.279 132.213L125.283 130.004C125.204 125.297 124.993 124.098 122.992 115.85C121.945 111.538 121.373 109.218 120.773 107.429C120.166 105.616 119.534 104.346 118.393 102.137L118.381 102.123C117.302 100.119 115.623 97.3868 114.153 95.1749C113.418 94.0695 112.727 93.0821 112.186 92.3718C111.918 92.0202 111.669 91.7205 111.467 91.5057C111.369 91.4012 111.261 91.2872 111.147 91.2021C111.092 91.1604 111.009 91.1059 110.907 91.0619C110.821 91.0245 110.611 90.944 110.353 91.0056C110.09 91.0694 109.931 91.2479 109.854 91.3729C109.785 91.4867 109.757 91.5913 109.746 91.6455C109.724 91.7558 109.727 91.8566 109.729 91.9037C109.734 92.0121 109.752 92.1353 109.772 92.2428C109.813 92.4688 109.887 92.772 109.977 93.1223C110.161 93.8343 110.441 94.8022 110.758 95.8479C114.636 108.297 112.063 121.546 103.163 134.3C100.673 137.871 98.4622 140.255 96.6148 141.489C95.6963 142.102 94.918 142.398 94.2753 142.453C93.658 142.506 93.1229 142.347 92.6443 141.952C92.2541 141.629 92.0471 141.382 91.8393 140.86C91.6051 140.273 91.3827 139.357 91.0562 137.667L91.0526 137.652C90.1448 133.247 90.5267 128.197 92.4715 120.85L92.992 118.674C95.3983 107.783 95.1006 96.2039 92.0631 83.6886C88.7552 70.059 83.068 58.9675 73.8057 48.0315C72.0775 46.0278 69.9423 43.7522 68.2116 42.0339C67.3484 41.1769 66.5743 40.4472 65.998 39.9499C65.7142 39.7051 65.4514 39.4999 65.2438 39.3625C65.1497 39.3002 65.017 39.2177 64.8707 39.1671C64.8025 39.1437 64.6508 39.0949 64.4685 39.1138C64.2435 39.1376 63.9656 39.2664 63.8139 39.5586L63.7873 39.6127C63.7298 39.7516 63.7296 39.8803 63.729 39.9287C63.7282 39.9904 63.7288 40.0449 63.7336 40.0785C63.7432 40.1448 63.763 40.2053 63.7755 40.251C63.8018 40.3469 63.836 40.4608 63.8781 40.5756C63.9637 40.8092 64.095 41.1182 64.2481 41.4786C64.557 42.2053 64.9948 43.1814 65.4762 44.2148C66.7284 46.8565 68.1403 51.0924 69.2697 55.2959C70.1185 58.4554 70.7932 61.5445 71.1221 63.8775L71.3288 65.9401C71.5702 70.7718 70.897 75.2988 69.4236 79.1349L68.7404 80.7384C67.9551 82.4173 66.7949 84.3096 65.7629 85.7183C65.3413 86.2936 64.9428 86.7641 64.6225 87.1071C64.6078 87.0322 64.5965 86.9529 64.5811 86.8709C64.441 86.1254 64.2771 85.1135 64.1346 84.0165L63.5853 80.3134C62.1355 71.2589 59.5772 59.6159 57.3943 52.2842C54.1434 41.4766 52.0876 36.1041 48.1694 28.4463C43.4692 19.3051 38.208 12.4968 32.3429 8.14056L31.1617 7.29931C29.0128 5.82753 25.9996 4.4207 23.575 3.56451C22.3697 3.13906 21.2577 2.8342 20.4428 2.73602C20.0593 2.68991 19.6191 2.66895 19.2573 2.79338C19.0632 2.86037 18.8146 2.99668 18.6493 3.26658C18.5621 3.4095 18.5149 3.55825 18.5003 3.69989L18.5331 4.097L18.6471 4.40295C18.6887 4.4904 18.7397 4.59209 18.7985 4.69979C18.9181 4.91836 19.0826 5.19602 19.2723 5.5062C19.6524 6.12762 20.1596 6.91357 20.7137 7.71403C30.0072 21.3642 34.2316 38.9594 32.0363 55.0542C31.2637 60.7014 28.8633 68.6885 26.7704 72.8612C23.2305 79.7025 20.7148 86.0353 19.5462 90.9449L19.1298 92.9602C16.6405 106.8 17.0533 118.377 20.433 132.303C23.8163 146.243 29.7486 157.664 38.722 167.468C36.9334 166.163 34.723 164.461 32.88 162.936L32.8707 162.931C29.8793 160.477 27.7502 158.385 25.9501 155.984C24.1474 153.579 22.6514 150.831 20.9473 147.055C17.2714 138.857 14.0869 123.372 13.6875 111.644L13.545 108.962C13.5206 108.612 13.5011 108.315 13.478 108.097C13.4665 107.989 13.4519 107.885 13.4388 107.804C13.4326 107.766 13.4264 107.72 13.4153 107.675C13.4138 107.669 13.3824 107.519 13.2882 107.38L13.2029 107.258L13.0799 107.177C12.9251 107.07 12.7355 107.019 12.5454 107.036C12.3737 107.052 12.247 107.118 12.1719 107.167C12.0332 107.256 11.9474 107.365 11.9137 107.412C11.8339 107.523 11.7688 107.654 11.7204 107.761C11.616 107.99 11.4939 108.315 11.3657 108.689C11.1065 109.445 10.7841 110.503 10.4483 111.683C9.77553 114.049 9.03471 116.955 8.60416 119.01C8.15118 121.164 7.52819 125.374 7.24589 128.37C5.92315 141.339 6.98567 152.433 10.6365 162.043C14.2917 171.664 20.5254 179.759 29.443 186.773C33.2623 189.761 38.1933 192.626 42.9332 194.802C47.6529 196.969 52.2776 198.497 55.4802 198.715C58.119 198.865 60.5915 198.368 62.5274 197.346C64.4559 196.329 65.9025 194.764 66.3914 192.779C66.4718 192.483 66.5485 192.15 66.533 191.791C66.5165 191.411 66.4001 191.062 66.1978 190.705C65.8295 190.057 65.0868 189.243 63.8784 187.956C60.0443 183.868 57.7406 180.636 54.9966 175.449C53.8088 173.221 53.1838 172.002 52.6382 170.477C52.0873 168.937 51.6132 167.072 50.7594 163.554L49.8436 159.519Z" fill="white"/>
</g>
<defs>
<filter id="filter0_d_1_11" x="9.53674e-07" y="0" width="225.022" height="209.441" filterUnits="userSpaceOnUse" color-interpolation-filters="sRGB">
<feFlood flood-opacity="0" result="BackgroundImageFix"/>
<feColorMatrix in="SourceAlpha" type="matrix" values="0 0 0 0 0 0 0 0 0 0 0 0 0 0 0 0 0 0 127 0" result="hardAlpha"/>
<feOffset dy="4"/>
<feGaussianBlur stdDeviation="3.35"/>
<feComposite in2="hardAlpha" operator="out"/>
<feColorMatrix type="matrix" values="0 0 0 0 0 0 0 0 0 0 0 0 0 0 0 0 0 0 0.51 0"/>
<feBlend mode="normal" in2="BackgroundImageFix" result="effect1_dropShadow_1_11"/>
<feBlend mode="normal" in="SourceGraphic" in2="effect1_dropShadow_1_11" result="shape"/>
</filter>
</defs>
</svg>
